<svg width="28" height="28" viewBox="0 0 28 28" fill="none" xmlns="http://www.w3.org/2000/svg">
<path d="M3.22878 3.22884C7.49041 -1.03279 14.3503 -1.08223 18.551 3.11849C22.3929 6.96039 22.6778 13.0248 19.4387 17.2933L27.7883 25.6429L25.8098 27.6214L17.4807 19.2923C13.2039 22.6848 7.017 22.4497 3.11842 18.5511C-1.08225 14.3504 -1.03273 7.49048 3.22878 3.22884ZM17.76 3.90951C13.9901 0.139633 7.83359 0.184574 4.00905 4.00911C0.184624 7.83368 0.14054 13.9902 3.91042 17.7601C7.68038 21.5296 13.837 21.4849 17.6614 17.6605C21.4856 13.8359 21.5298 7.67931 17.76 3.90951Z" fill="#2B4074"/>
</svg>
